<svg width="90" height="90" viewBox="0 0 90 90" fill="none" xmlns="http://www.w3.org/2000/svg">
<circle cx="45" cy="45" r="45" fill="#FFD836"/>
<path d="M49.354 48.9586C49.4876 48.9586 49.6197 48.9302 49.7414 48.8752C52.7446 47.5244 56.3027 44.6044 56.4454 40.8206C56.4502 40.6977 56.4305 40.575 56.3876 40.4597C56.3447 40.3443 56.2793 40.2385 56.1953 40.1483C56.1112 40.058 56.0101 39.9852 55.8977 39.9338C55.7854 39.8825 55.6639 39.8537 55.5403 39.8491C55.4167 39.8444 55.2935 39.8641 55.1775 39.9069C55.0616 39.9497 54.9552 40.0148 54.8646 40.0985C54.774 40.1822 54.7008 40.2828 54.6493 40.3946C54.5978 40.5065 54.569 40.6273 54.5644 40.7502C54.461 43.4915 51.6779 45.9494 48.9656 47.1692C48.7696 47.2575 48.6098 47.4099 48.513 47.6011C48.4162 47.7922 48.3881 48.0106 48.4335 48.2199C48.479 48.4291 48.5951 48.6165 48.7625 48.751C48.93 48.8854 49.1387 48.9587 49.3539 48.9586H49.354Z" fill="black" fill-opacity="0.4"/>
<path d="M57.8235 56.7002C57.6233 56.7012 57.4233 56.7137 57.2245 56.7376L55.1446 50.0249C57.1483 48.4976 58.7716 46.532 59.889 44.2804C61.0064 42.0288 61.5878 39.5516 61.5882 37.0407C61.5882 36.7924 61.4891 36.5543 61.3125 36.3787C61.136 36.2031 60.8967 36.1045 60.6471 36.1045H29.5882C29.3386 36.1045 29.0992 36.2031 28.9227 36.3787C28.7462 36.5543 28.6471 36.7924 28.6471 37.0407C28.6483 37.9822 28.731 38.9218 28.8942 39.8492H23.9412C23.6916 39.8492 23.4522 39.9478 23.2757 40.1234C23.0992 40.2989 23 40.5371 23 40.7853C23 41.0336 23.0992 41.2717 23.2757 41.4473C23.4522 41.6229 23.6916 41.7215 23.9412 41.7215H29.3357C30.3621 45.123 32.4682 48.1025 35.339 50.214L31.4975 65.8395C31.4678 65.9591 31.4622 66.0832 31.4808 66.2049C31.4995 66.3266 31.5421 66.4435 31.6062 66.5488C31.6703 66.6541 31.7547 66.7458 31.8545 66.8186C31.9543 66.8914 32.0675 66.9439 32.1877 66.9732C32.308 67.0024 32.4328 67.0078 32.5551 66.989C32.6774 66.9702 32.7948 66.9276 32.9005 66.8636C33.0063 66.7996 33.0983 66.7155 33.1713 66.6161C33.2443 66.5167 33.2969 66.404 33.3261 66.2843L34.1863 62.7853H52.737C52.9161 63.7469 53.367 64.6379 54.0367 65.3539C54.7065 66.0698 55.5675 66.5812 56.5188 66.8281C57.4702 67.075 58.4726 67.0472 59.4086 66.7479C60.3447 66.4487 61.1757 65.8903 61.8043 65.1383C62.4329 64.3863 62.8331 63.4718 62.958 62.5017C63.083 61.5317 62.9275 60.5463 62.5099 59.6609C62.0922 58.7756 61.4296 58.0269 60.5996 57.5026C59.7697 56.9782 58.8067 56.6999 57.8235 56.7002ZM30.5595 37.9768H59.6758C59.4365 41.6555 57.7987 45.1058 55.0948 47.6269C52.3909 50.148 48.8237 51.551 45.1176 51.551C41.4115 51.551 37.8444 50.148 35.1405 47.6269C32.4366 45.1058 30.7988 41.6555 30.5595 37.9768ZM37.0116 51.2935C39.5325 52.7176 42.3876 53.4522 45.2866 53.4228C48.1856 53.3934 51.025 52.6009 53.5162 51.126L55.4262 57.2899C54.7318 57.6524 54.129 58.1667 53.6632 58.7943C53.1974 59.4218 52.8808 60.1462 52.737 60.913H34.6466L37.0116 51.2935ZM57.8235 65.1258C57.172 65.1258 56.5351 64.9336 55.9934 64.5736C55.4517 64.2135 55.0295 63.7018 54.7802 63.1031C54.5308 62.5043 54.4656 61.8455 54.5927 61.2099C54.7198 60.5743 55.0335 59.9905 55.4942 59.5323C55.9549 59.074 56.5419 58.762 57.1809 58.6355C57.8199 58.5091 58.4822 58.574 59.0841 58.822C59.6861 59.07 60.2005 59.49 60.5625 60.0288C60.9244 60.5676 61.1176 61.2011 61.1176 61.8492C61.1167 62.7179 60.7693 63.5507 60.1517 64.165C59.5342 64.7793 58.6969 65.1248 57.8235 65.1258Z" fill="black" fill-opacity="0.4"/>
<path d="M52.8741 28.71C53.3454 30.1159 53.5177 31.106 52.9228 31.6979C52.8354 31.7848 52.766 31.888 52.7187 32.0016C52.6713 32.1152 52.647 32.2369 52.6469 32.3599C52.6469 32.4828 52.6713 32.6046 52.7186 32.7182C52.7658 32.8318 52.8352 32.935 52.9226 33.0219C53.01 33.1089 53.1138 33.1778 53.228 33.2249C53.3422 33.2719 53.4646 33.2961 53.5882 33.2961C53.7118 33.2961 53.8342 33.2719 53.9484 33.2248C54.0626 33.1777 54.1663 33.1087 54.2537 33.0217C55.7909 31.4927 55.0551 29.2974 54.6599 28.1183L54.423 27.4116C53.9683 26.0617 53.7107 25.1365 54.2537 24.5962C54.4294 24.4205 54.5279 24.1826 54.5275 23.9348C54.5272 23.687 54.4281 23.4494 54.2519 23.2742C54.0757 23.0989 53.8369 23.0003 53.5877 23C53.3386 22.9997 53.0994 23.0976 52.9228 23.2724C51.5147 24.6728 52.1643 26.5997 52.6383 28.0067L52.8741 28.71Z" fill="black" fill-opacity="0.4"/>
<path d="M44.4036 28.71C44.8749 30.1159 45.0472 31.106 44.4523 31.6979C44.3649 31.7848 44.2955 31.888 44.2482 32.0016C44.2009 32.1152 44.1765 32.2369 44.1765 32.3599C44.1765 32.4828 44.2008 32.6046 44.2481 32.7182C44.2954 32.8318 44.3647 32.935 44.4521 33.0219C44.5395 33.1089 44.6433 33.1778 44.7575 33.2249C44.8717 33.2719 44.9941 33.2961 45.1177 33.2961C45.2413 33.2961 45.3637 33.2719 45.4779 33.2248C45.5921 33.1777 45.6958 33.1087 45.7832 33.0217C47.3204 31.4927 46.5847 29.2974 46.1895 28.1183L45.9526 27.4116C45.4978 26.0617 45.2402 25.1365 45.7832 24.5962C45.9589 24.4205 46.0574 24.1826 46.0571 23.9348C46.0567 23.687 45.9576 23.4494 45.7814 23.2742C45.6053 23.0989 45.3664 23.0003 45.1173 23C44.8681 22.9997 44.629 23.0976 44.4523 23.2724C43.0442 24.6728 43.6938 26.5997 44.1679 28.0067L44.4036 28.71Z" fill="black" fill-opacity="0.4"/>
<path d="M35.8124 28.8826C36.2671 30.2324 36.5247 31.1576 35.9817 31.6979C35.8943 31.7848 35.8249 31.888 35.7776 32.0016C35.7303 32.1152 35.7059 32.2369 35.7059 32.3599C35.7058 32.4828 35.7302 32.6046 35.7775 32.7182C35.8248 32.8318 35.8941 32.935 35.9815 33.0219C36.0689 33.1089 36.1727 33.1778 36.2869 33.2249C36.4011 33.2719 36.5235 33.2961 36.6471 33.2961C36.7707 33.2961 36.8931 33.2718 37.0073 33.2248C37.1215 33.1777 37.2252 33.1087 37.3126 33.0217C38.7207 31.6214 38.0711 29.6944 37.5971 28.2874L37.3613 27.5841C36.89 26.1783 36.7177 25.1882 37.3126 24.5962C37.4883 24.4205 37.5868 24.1826 37.5864 23.9348C37.5861 23.687 37.487 23.4494 37.3108 23.2742C37.1346 23.0989 36.8958 23.0003 36.6466 23C36.3975 22.9997 36.1583 23.0976 35.9817 23.2724C34.4445 24.8014 35.1802 26.9967 35.5754 28.1759L35.8124 28.8826Z" fill="black" fill-opacity="0.4"/>
</svg>
