<svg width="18" height="16" viewBox="0 0 18 16" fill="none" xmlns="http://www.w3.org/2000/svg">
<path d="M8.7174 4.78129C8.7174 4.12985 8.51978 3.49304 8.14953 2.95139C7.77928 2.40973 7.25302 1.98757 6.63731 1.73827C6.02161 1.48898 5.3441 1.42375 4.69047 1.55084C4.03684 1.67793 3.43644 1.99163 2.9652 2.45226C2.49395 2.9129 2.17303 3.49979 2.04302 4.13871C1.913 4.77764 1.97973 5.4399 2.23477 6.04175C2.4898 6.6436 2.92169 7.15801 3.47581 7.51993C4.02993 7.88185 4.6814 8.07503 5.34784 8.07503C6.2415 8.07503 7.09856 7.72801 7.73048 7.11031C8.3624 6.49262 8.7174 5.65484 8.7174 4.78129ZM3.30436 4.78129C3.30438 4.38112 3.42607 3.98998 3.65398 3.65756C3.88188 3.32513 4.20572 3.06642 4.58436 2.91427C4.96299 2.76212 5.37935 2.7234 5.78054 2.80303C6.18174 2.88266 6.54967 3.07705 6.83761 3.36151C7.12555 3.64596 7.32051 4.00765 7.39773 4.40064C7.47494 4.79363 7.43093 5.20018 7.27128 5.56867C7.11163 5.93715 6.84354 6.25094 6.50107 6.47019C6.1586 6.68944 5.7572 6.80424 5.34784 6.80003C4.80011 6.80003 4.27481 6.58734 3.88751 6.20876C3.50021 5.83017 3.28262 5.31669 3.28262 4.78129H3.30436Z" fill="#FFD836"/>
<path d="M13.3261 6.90618H11.9783C11.2204 6.90264 10.4733 7.08098 9.80238 7.42554C9.13149 7.77011 8.55738 8.27037 8.13043 8.88242C7.48353 8.562 6.76869 8.39459 6.04348 8.39367H4.67391C4.06013 8.39367 3.45235 8.51185 2.88528 8.74145C2.31822 8.97105 1.80297 9.30758 1.36896 9.73183C0.492429 10.5886 0 11.7507 0 12.9624V13.5999C0 14.0508 0.183229 14.4832 0.509379 14.802C0.83553 15.1208 1.27788 15.2999 1.73913 15.2999H8.95652C9.38246 15.3032 9.79482 15.1535 10.1154 14.8793C10.4359 14.6052 10.6424 14.2255 10.6957 13.8124H16.2609C16.7221 13.8124 17.1645 13.6333 17.4906 13.3145C17.8168 12.9957 18 12.5633 18 12.1124V11.4749C18 10.2632 17.5076 9.10113 16.631 8.24433C15.7545 7.38753 14.5657 6.90618 13.3261 6.90618ZM9.3913 13.5787C9.3913 13.6914 9.3455 13.7995 9.26396 13.8792C9.18242 13.9589 9.07183 14.0037 8.95652 14.0037H1.73913C1.62382 14.0037 1.51323 13.9589 1.43169 13.8792C1.35015 13.7995 1.30435 13.6914 1.30435 13.5787V12.9624C1.30435 12.0889 1.65935 11.2511 2.29127 10.6334C2.92319 10.0157 3.78025 9.66867 4.67391 9.66867H6.04348C6.93337 9.67428 7.78486 10.0238 8.41208 10.6409C9.0393 11.258 9.39132 12.0925 9.3913 12.9624V13.5787ZM16.6957 12.1124C16.6957 12.2251 16.6498 12.3332 16.5683 12.4129C16.4868 12.4926 16.3762 12.5374 16.2609 12.5374H10.6739C10.5701 11.4146 10.0432 10.3695 9.19565 9.60492C9.50291 9.16624 9.91489 8.80734 10.3959 8.55926C10.877 8.31119 11.4126 8.18142 11.9565 8.18118H13.3261C14.2197 8.18118 15.0768 8.52819 15.7087 9.14589C16.3406 9.76358 16.6957 10.6014 16.6957 11.4749V12.1124Z" fill="#FFD836"/>
<path d="M16.0218 3.29374C16.0218 2.6423 15.8242 2.00549 15.454 1.46384C15.0837 0.922185 14.5575 0.500018 13.9418 0.250722C13.326 0.00142712 12.6485 -0.0637999 11.9949 0.0632897C11.3413 0.190379 10.7409 0.504078 10.2696 0.964715C9.7984 1.42535 9.47748 2.01224 9.34746 2.65116C9.21745 3.29009 9.28417 3.95235 9.53921 4.5542C9.79424 5.15605 10.2261 5.67046 10.7803 6.03238C11.3344 6.3943 11.9858 6.58748 12.6523 6.58748C13.0948 6.58748 13.5329 6.50228 13.9418 6.33676C14.3506 6.17123 14.722 5.92862 15.0349 5.62277C15.3478 5.31691 15.596 4.95381 15.7654 4.5542C15.9347 4.15458 16.0218 3.72628 16.0218 3.29374ZM10.6088 3.29374C10.6088 2.89357 10.7305 2.50243 10.9584 2.17001C11.1863 1.83758 11.5102 1.57887 11.8888 1.42672C12.2674 1.27457 12.6838 1.23585 13.085 1.31548C13.4862 1.39511 13.8541 1.5895 14.1421 1.87396C14.43 2.15841 14.625 2.5201 14.7022 2.91309C14.7794 3.30608 14.7354 3.71263 14.5757 4.08112C14.4161 4.4496 14.148 4.7634 13.8055 4.98264C13.463 5.20189 13.0616 5.3167 12.6523 5.31248C12.1046 5.31248 11.5793 5.09979 11.192 4.72121C10.8046 4.34262 10.5871 3.82914 10.5871 3.29374H10.6088Z" fill="#FFD836"/>
</svg>
