<svg width="48" height="48" viewBox="0 0 48 48" fill="none" xmlns="http://www.w3.org/2000/svg">
<g opacity="0.2">
<path d="M48 48H0V0H48V48ZM1.59502 46.405H46.405V1.59502H1.59502V46.405Z" fill="black"/>
<path d="M11.7798 16.4819H9.57007V15.0364C11.6801 15.0364 13.4579 15.0364 15.5846 15.0364V16.4819H13.3748V22.297H11.7632V16.4819H11.7798Z" fill="#231F20"/>
<path d="M27.4973 22.0977H25.7029L23.842 19.7218H22.679V22.0977H21.0674V14.8536C22.247 14.8536 23.3436 14.8536 24.5066 14.8536C26.2512 14.8536 27.1816 16.0167 27.1816 17.296C27.165 18.243 26.8992 19.0738 25.5035 19.5722L27.4973 21.9814V22.0977ZM22.679 16.2493V18.3593H24.5233C25.2709 18.3593 25.5866 17.7944 25.5866 17.3458C25.57 16.8474 25.2543 16.2493 24.5066 16.2493H22.679Z" fill="#231F20"/>
<path d="M33.8608 22.0145V14.7539H35.4725V21.9979H33.8608V22.0145Z" fill="#231F20"/>
<path d="M14.3717 30.6043L14.272 28.3281V25.8857H15.9002V33.1298H14.5046L10.8992 28.4943L10.9657 30.8702V33.1298H9.3208V25.8857H10.7164L14.3717 30.6043Z" fill="#231F20"/>
<path d="M27.3643 31.9835C26.6167 32.7145 25.653 33.0468 24.5731 33.0468C21.815 33.0468 20.7018 31.269 20.7018 29.2919C20.6852 27.4144 21.9147 25.4539 24.5731 25.4539C25.5699 25.4539 26.4838 25.836 27.2314 26.567L26.2179 27.5639C25.7859 27.1319 25.1546 26.9658 24.5731 26.9658C22.9282 26.9658 22.2802 28.2451 22.2968 29.2919C22.3135 30.3552 22.8784 31.5515 24.5731 31.5515C25.1546 31.5515 25.9189 31.2856 26.3508 30.8536L27.3643 31.9835Z" fill="#231F20"/>
<path d="M36.403 32H32.6812L32.1496 33.2461H30.405L33.6615 26.0021H35.4227L38.6792 33.2461H36.9346L36.403 32ZM34.5421 27.6303L33.296 30.5711H35.7882L34.5421 27.6303Z" fill="#231F20"/>
</g>
</svg>
